<svg xmlns="http://www.w3.org/2000/svg" version="1.1" xmlns:xlink="http://www.w3.org/1999/xlink" xmlns:svgjs="http://svgjs.dev/svgjs" width="1440" height="780" preserveAspectRatio="none" viewBox="0 0 1440 780"><g mask="url(&quot;#SvgjsMask1009&quot;)" fill="none"><path d="M147.79 876.85C354.75 843.94 422.3 369.34 794.39 343.42 1166.49 317.5 1271.01 135.45 1441 132.82" stroke="rgba(51,121,194,0.58)" stroke-width="2"></path><path d="M366.86 819.18C508.07 818.53 617.1 712.35 919.28 701.38 1221.46 690.41 1305.74 344.06 1471.7 326.98" stroke="rgba(51,121,194,0.58)" stroke-width="2"></path><path d="M557.61 851.15C702.7 763.52 623.4 265.43 888.43 259.32 1153.46 253.21 1375.91 474.92 1550.08 477.72" stroke="rgba(51,121,194,0.58)" stroke-width="2"></path><path d="M551.5 827.1C697.27 760.9 636.83 298.38 911.54 297.51 1186.24 296.64 1433.98 617.53 1631.61 625.11" stroke="rgba(51,121,194,0.58)" stroke-width="2"></path><path d="M221.16 898.74C399.38 885.68 478.61 564.83 837.49 536.72 1196.37 508.61 1273.15 169.61 1453.82 154.52" stroke="rgba(51,121,194,0.58)" stroke-width="2"></path></g><defs><mask id="SvgjsMask1009"><rect width="1440" height="780" fill="#ffffff"></rect></mask></defs></svg>